<svg width="64" height="64" viewBox="0 0 64 64" xmlns="http://www.w3.org/2000/svg"><mask id="satori_om-id"><rect x="0" y="0" width="64" height="64" fill="#fff"/></mask><rect x="0" y="0" width="64" height="64" fill="#111111"/><g  ><path fill="#ffffff" d="M-223.8 76.2L-297.8 80.6C-291.6 163.5-225.5 216.7-131.4 216.7C-50.2 216.7 16.4 175.8 16.4 100.8C16.4 38.1-40.7 0.6-123.6-19.6C-167.3-30.8-213.8-42.0-214.9-81.2C-215.4-112.6-187.4-133.3-147.7-133.3C-101.8-133.3-69.8-104.7-64.2-61.0L9.7-64.4C0.7-142.8-58.1-196.6-146.6-196.6C-232.2-196.6-289.9-152.3-289.9-81.8C-289.9-17.4-233.4 16.2-154.4 35.3C-87.2 52.6-58.6 71.1-58.6 104.2C-58.1 136.1-86.6 152.9-128.6 152.9C-183.0 152.9-214.9 122.6-223.8 76.2ZM2.4-187.6L145.8 210L234.2 210L377.6-187.6L300.3-187.6L190.0 127.7L79.1-187.6Z "/></g></svg>